<svg xmlns="http://www.w3.org/2000/svg" viewBox="0 0 32 32" fill="white">
  <path d="M16.001 3C9.373 3 4 8.373 4 15c0 2.646.86 5.09 2.324 7.066L4 29l7.1-2.262C13.09 27.14 14.51 27.5 16 27.5c6.627 0 12-5.373 12-12S22.628 3 16.001 3zm0 22.1c-1.338 0-2.65-.35-3.81-1.01l-.273-.16-4.21 1.34 1.374-4.098-.178-.28C7.975 19.78 7.6 17.41 7.6 15c0-4.632 3.77-8.4 8.4-8.4 4.63 0 8.4 3.768 8.4 8.4 0 4.63-3.77 8.4-8.399 8.4zm4.86-6.353c-.266-.133-1.574-.777-1.818-.867-.244-.088-.422-.133-.6.133-.178.267-.688.867-.844 1.045-.156.178-.31.2-.577.067-.266-.133-1.125-.415-2.143-1.324-.792-.705-1.327-1.575-1.483-1.842-.156-.266-.017-.41.117-.543.12-.12.267-.31.4-.467.133-.156.178-.267.267-.444.089-.178.045-.333-.022-.467-.067-.133-.6-1.444-.822-1.978-.216-.52-.435-.45-.6-.458-.155-.008-.333-.01-.511-.01-.178 0-.467.067-.711.333-.244.267-.933.911-.933 2.222s.956 2.578 1.089 2.756c.133.178 1.882 2.878 4.56 4.035.638.275 1.136.44 1.523.563.64.203 1.222.174 1.681.106.513-.076 1.574-.644 1.796-1.267.222-.622.222-1.156.155-1.267-.067-.11-.244-.178-.511-.311z"/>
</svg>
